<svg xmlns="http://www.w3.org/2000/svg" viewBox="0 0 100 100">
  <!-- Background: White Square -->
  <rect x="0" y="5" width="100" height="60" fill="white" rx="10" ry="10" />

  <!-- Letter P - Manual Pixel Art -->
  <!-- P - Vertical line -->
  <rect x="8" y="14" width="5" height="35" fill="#2C2C2C" />
  <!-- P - Top horizontal -->
  <rect x="13" y="14" width="15" height="5" fill="#2C2C2C" />
  <!-- P - Middle horizontal -->
  <rect x="13" y="26" width="15" height="5" fill="#2C2C2C" />
  <!-- P - Right vertical (top part) -->
  <rect x="27" y="19" width="5" height="7" fill="#2C2C2C" />

  <!-- Letter R - Manual Pixel Art -->
  <!-- R - Vertical line -->
  <rect x="38" y="14" width="5" height="35" fill="#2C2C2C" />
  <!-- R - Top horizontal -->
  <rect x="43" y="14" width="15" height="5" fill="#2C2C2C" />
  <!-- R - Middle horizontal -->
  <rect x="43" y="26" width="15" height="5" fill="#2C2C2C" />
  <!-- R - Right vertical (top part) -->
  <rect x="57" y="19" width="5" height="7" fill="#2C2C2C" />
  <!-- R - Diagonal line -->
  <rect x="42" y="27" width="5" height="7" fill="#2C2C2C" />
  <rect x="46" y="31" width="5" height="7" fill="#2C2C2C" />
  <rect x="51" y="36" width="5" height="7" fill="#2C2C2C" />
  <rect x="56" y="41" width="5" height="7" fill="#2C2C2C" />

  <!-- Letter O - Manual Pixel Art -->
  <!-- O - Left vertical -->
  <rect x="69" y="19" width="5" height="25" fill="#2C2C2C" />
  <!-- O - Right vertical -->
  <rect x="84" y="19" width="5" height="25" fill="#2C2C2C" />
  <!-- O - Top horizontal -->
  <rect x="74" y="14" width="10" height="5" fill="#2C2C2C" />
  <!-- O - Bottom horizontal -->
  <rect x="74" y="44" width="10" height="5" fill="#2C2C2C" />
</svg>